<svg xmlns="http://www.w3.org/2000/svg" width="1024" height="1024" fill="none" viewBox="0 0 1024 1024" id="netflix"><rect width="690" height="690" x="167" y="167" fill="#000" rx="100"></rect><rect width="690" height="690" x="167" y="167" fill="url(#paint0_linear_37_1184)" fill-opacity=".7" rx="100"></rect><g filter="url(#filter0_diii_37_1184)"><path fill="#FF002B" d="M298.25 444.5C306.125 444.5 312.875 444.5 320.75 444.5C320.75 490.625 320.75 535.625 320.75 581.75C311.75 582.875 302.75 584 294.875 585.125C283.625 557 264.5 508.625 264.5 508.625C264.5 508.625 264.5 557 264.5 588.5C269 588.5 262.25 588.5 242 591.875C242 543.5 242 494 242 445.625C251 445.625 264.5 445.625 264.5 445.625L298.25 527.75C298.25 527.75 298.25 476 298.25 444.5ZM407.375 467C407.375 460.25 407.375 451.25 407.375 444.5C386 444.5 364.625 444.5 343.25 444.5C343.25 489.5 343.25 534.5 343.25 579.5C364.625 577.25 386 575 407.375 572.75C407.375 566 407.375 557 407.375 550.25C393.875 551.375 380.375 551.375 365.75 554.75C365.75 542.375 365.75 535.625 365.75 523.25C375.875 523.25 389.375 523.25 399.5 523.25C399.5 516.5 399.5 507.5 399.5 500.75C389.375 500.75 375.875 500.75 365.75 500.75C365.75 488.375 365.75 479.375 365.75 467C372.5 468.125 401.75 468.125 407.375 467ZM422 467C423.125 467 443.375 467 444.5 467C444.5 503 444.5 534.5 444.5 570.5C452.375 570.5 459.125 570.5 467 569.375C467 533.375 467 503 467 467C474.875 467 481.625 467 489.5 467C489.5 460.25 489.5 451.25 489.5 444.5C465.875 444.5 445.625 444.5 422 444.5C422 451.25 422 460.25 422 467ZM563.75 444.5C542.375 444.5 522.125 444.5 500.75 444.5C500.75 487.25 500.75 525.5 500.75 568.25C503 568.25 505.25 568.25 507.5 568.25C512 568.25 517.625 568.25 523.25 568.25C523.25 550.25 523.25 541.25 523.25 523.25C524.375 523.25 550.25 523.25 553.625 523.25C553.625 516.5 553.625 507.5 553.625 500.75C550.25 500.75 524.375 500.75 523.25 500.75C523.25 489.5 523.25 478.25 523.25 467C525.5 467 558.125 467 563.75 467C563.75 461.375 563.75 451.25 563.75 444.5ZM602 551.375C602 514.25 602 481.625 602 444.5C594.125 444.5 587.375 444.5 579.5 444.5C579.5 487.25 579.5 527.75 579.5 570.5C599.75 571.625 620 572.75 640.25 575C640.25 568.25 640.25 560.375 640.25 553.625C627.875 552.5 614.375 551.375 602 551.375ZM658.25 576.125C666.125 577.25 672.875 577.25 680.75 578.375C680.75 533.375 680.75 489.5 680.75 444.5C672.875 444.5 666.125 444.5 658.25 444.5C658.25 489.5 658.25 532.25 658.25 576.125ZM752.75 514.25C762.875 491.75 771.875 469.25 782 445.625C774.125 445.625 765.125 445.625 757.25 445.625C751.625 460.25 747.125 470.375 741.5 483.875C735.875 469.25 732.5 459.125 726.875 445.625C719 445.625 710 445.625 702.125 445.625C711.125 468.125 719 490.625 729.125 514.25C719 536.75 710 559.25 699.875 581.75C707.75 582.875 715.625 584 723.5 585.125C729.125 570.5 734.75 560.375 740.375 545.75C746 561.5 751.625 572.75 757.25 588.5C765.125 589.625 775.25 590.75 783.125 591.875C771.875 564.875 761.75 537.875 752.75 514.25Z"></path><path fill="url(#paint1_linear_37_1184)" d="M298.25 444.5C306.125 444.5 312.875 444.5 320.75 444.5C320.75 490.625 320.75 535.625 320.75 581.75C311.75 582.875 302.75 584 294.875 585.125C283.625 557 264.5 508.625 264.5 508.625C264.5 508.625 264.5 557 264.5 588.5C269 588.5 262.25 588.5 242 591.875C242 543.5 242 494 242 445.625C251 445.625 264.5 445.625 264.5 445.625L298.25 527.75C298.25 527.75 298.25 476 298.25 444.5ZM407.375 467C407.375 460.25 407.375 451.25 407.375 444.5C386 444.5 364.625 444.5 343.25 444.5C343.25 489.5 343.25 534.5 343.25 579.5C364.625 577.25 386 575 407.375 572.75C407.375 566 407.375 557 407.375 550.25C393.875 551.375 380.375 551.375 365.75 554.75C365.75 542.375 365.75 535.625 365.75 523.25C375.875 523.25 389.375 523.25 399.5 523.25C399.5 516.5 399.5 507.5 399.5 500.75C389.375 500.75 375.875 500.75 365.75 500.75C365.75 488.375 365.75 479.375 365.75 467C372.5 468.125 401.75 468.125 407.375 467ZM422 467C423.125 467 443.375 467 444.5 467C444.5 503 444.5 534.5 444.5 570.5C452.375 570.5 459.125 570.5 467 569.375C467 533.375 467 503 467 467C474.875 467 481.625 467 489.5 467C489.5 460.25 489.5 451.25 489.5 444.5C465.875 444.5 445.625 444.5 422 444.5C422 451.25 422 460.25 422 467ZM563.75 444.5C542.375 444.5 522.125 444.5 500.75 444.5C500.75 487.25 500.75 525.5 500.75 568.25C503 568.25 505.25 568.25 507.5 568.25C512 568.25 517.625 568.25 523.25 568.25C523.25 550.25 523.25 541.25 523.25 523.25C524.375 523.25 550.25 523.25 553.625 523.25C553.625 516.5 553.625 507.5 553.625 500.75C550.25 500.75 524.375 500.75 523.25 500.75C523.25 489.5 523.25 478.25 523.25 467C525.5 467 558.125 467 563.75 467C563.75 461.375 563.75 451.25 563.75 444.5ZM602 551.375C602 514.25 602 481.625 602 444.5C594.125 444.5 587.375 444.5 579.5 444.5C579.5 487.25 579.5 527.75 579.5 570.5C599.75 571.625 620 572.75 640.25 575C640.25 568.25 640.25 560.375 640.25 553.625C627.875 552.5 614.375 551.375 602 551.375ZM658.25 576.125C666.125 577.25 672.875 577.25 680.75 578.375C680.75 533.375 680.75 489.5 680.75 444.5C672.875 444.5 666.125 444.5 658.25 444.5C658.25 489.5 658.25 532.25 658.25 576.125ZM752.75 514.25C762.875 491.75 771.875 469.25 782 445.625C774.125 445.625 765.125 445.625 757.25 445.625C751.625 460.25 747.125 470.375 741.5 483.875C735.875 469.25 732.5 459.125 726.875 445.625C719 445.625 710 445.625 702.125 445.625C711.125 468.125 719 490.625 729.125 514.25C719 536.75 710 559.25 699.875 581.75C707.75 582.875 715.625 584 723.5 585.125C729.125 570.5 734.75 560.375 740.375 545.75C746 561.5 751.625 572.75 757.25 588.5C765.125 589.625 775.25 590.75 783.125 591.875C771.875 564.875 761.75 537.875 752.75 514.25Z"></path><path fill="url(#paint2_linear_37_1184)" fill-opacity=".7" d="M298.25 444.5C306.125 444.5 312.875 444.5 320.75 444.5C320.75 490.625 320.75 535.625 320.75 581.75C311.75 582.875 302.75 584 294.875 585.125C283.625 557 264.5 508.625 264.5 508.625C264.5 508.625 264.5 557 264.5 588.5C269 588.5 262.25 588.5 242 591.875C242 543.5 242 494 242 445.625C251 445.625 264.5 445.625 264.5 445.625L298.25 527.75C298.25 527.75 298.25 476 298.25 444.5ZM407.375 467C407.375 460.25 407.375 451.25 407.375 444.5C386 444.5 364.625 444.5 343.25 444.5C343.25 489.5 343.25 534.5 343.25 579.5C364.625 577.25 386 575 407.375 572.75C407.375 566 407.375 557 407.375 550.25C393.875 551.375 380.375 551.375 365.75 554.75C365.75 542.375 365.75 535.625 365.75 523.25C375.875 523.25 389.375 523.25 399.5 523.25C399.5 516.5 399.5 507.5 399.5 500.75C389.375 500.75 375.875 500.75 365.75 500.75C365.75 488.375 365.75 479.375 365.75 467C372.5 468.125 401.75 468.125 407.375 467ZM422 467C423.125 467 443.375 467 444.5 467C444.5 503 444.5 534.5 444.5 570.5C452.375 570.5 459.125 570.5 467 569.375C467 533.375 467 503 467 467C474.875 467 481.625 467 489.5 467C489.5 460.25 489.5 451.25 489.5 444.5C465.875 444.5 445.625 444.5 422 444.5C422 451.25 422 460.25 422 467ZM563.75 444.5C542.375 444.5 522.125 444.5 500.75 444.5C500.75 487.25 500.75 525.5 500.75 568.25C503 568.25 505.25 568.25 507.5 568.25C512 568.25 517.625 568.25 523.25 568.25C523.25 550.25 523.25 541.25 523.25 523.25C524.375 523.25 550.25 523.25 553.625 523.25C553.625 516.5 553.625 507.5 553.625 500.75C550.25 500.75 524.375 500.75 523.25 500.75C523.25 489.5 523.25 478.25 523.25 467C525.5 467 558.125 467 563.75 467C563.75 461.375 563.75 451.25 563.75 444.5ZM602 551.375C602 514.25 602 481.625 602 444.5C594.125 444.5 587.375 444.5 579.5 444.5C579.5 487.25 579.5 527.75 579.5 570.5C599.75 571.625 620 572.75 640.25 575C640.25 568.25 640.25 560.375 640.25 553.625C627.875 552.5 614.375 551.375 602 551.375ZM658.25 576.125C666.125 577.25 672.875 577.25 680.75 578.375C680.75 533.375 680.75 489.5 680.75 444.5C672.875 444.5 666.125 444.5 658.25 444.5C658.25 489.5 658.25 532.25 658.25 576.125ZM752.75 514.25C762.875 491.75 771.875 469.25 782 445.625C774.125 445.625 765.125 445.625 757.25 445.625C751.625 460.25 747.125 470.375 741.5 483.875C735.875 469.25 732.5 459.125 726.875 445.625C719 445.625 710 445.625 702.125 445.625C711.125 468.125 719 490.625 729.125 514.25C719 536.75 710 559.25 699.875 581.75C707.75 582.875 715.625 584 723.5 585.125C729.125 570.5 734.75 560.375 740.375 545.75C746 561.5 751.625 572.75 757.25 588.5C765.125 589.625 775.25 590.75 783.125 591.875C771.875 564.875 761.75 537.875 752.75 514.25Z"></path></g><defs><linearGradient id="paint0_linear_37_1184" x1="512" x2="512" y1="167" y2="857" gradientUnits="userSpaceOnUse"><stop></stop><stop offset="1" stop-color="#fff" stop-opacity="0"></stop></linearGradient><linearGradient id="paint1_linear_37_1184" x1="512.977" x2="512.977" y1="391.574" y2="559.125" gradientUnits="userSpaceOnUse"><stop offset=".005" stop-color="#fff" stop-opacity=".08"></stop><stop offset=".085" stop-opacity=".08"></stop><stop offset=".337" stop-color="#fff" stop-opacity=".1"></stop><stop offset=".661" stop-color="#fff" stop-opacity=".1"></stop><stop offset="1" stop-opacity=".1"></stop></linearGradient><linearGradient id="paint2_linear_37_1184" x1="512.562" x2="512.562" y1="444.5" y2="591.875" gradientUnits="userSpaceOnUse"><stop stop-color="#FF002B"></stop><stop offset="1" stop-color="#fff" stop-opacity="0"></stop></linearGradient><filter id="filter0_diii_37_1184" width="581.125" height="201.031" x="222" y="424.306" color-interpolation-filters="sRGB" filterUnits="userSpaceOnUse"><feFlood flood-opacity="0" result="BackgroundImageFix"></feFlood><feColorMatrix in="SourceAlpha" result="hardAlpha" values="0 0 0 0 0 0 0 0 0 0 0 0 0 0 0 0 0 0 127 0"></feColorMatrix><feOffset dy="13.462"></feOffset><feGaussianBlur stdDeviation="10"></feGaussianBlur><feColorMatrix values="0 0 0 0 1 0 0 0 0 0 0 0 0 0 0.168627 0 0 0 0.6 0"></feColorMatrix><feBlend in2="BackgroundImageFix" result="effect1_dropShadow_37_1184"></feBlend><feBlend in="SourceGraphic" in2="effect1_dropShadow_37_1184" result="shape"></feBlend><feColorMatrix in="SourceAlpha" result="hardAlpha" values="0 0 0 0 0 0 0 0 0 0 0 0 0 0 0 0 0 0 127 0"></feColorMatrix><feOffset dy="-20.194"></feOffset><feGaussianBlur stdDeviation="45"></feGaussianBlur><feComposite in2="hardAlpha" k2="-1" k3="1" operator="arithmetic"></feComposite><feColorMatrix values="0 0 0 0 1 0 0 0 0 0 0 0 0 0 0.168627 0 0 0 0.6 0"></feColorMatrix><feBlend in2="shape" result="effect2_innerShadow_37_1184"></feBlend><feColorMatrix in="SourceAlpha" result="hardAlpha" values="0 0 0 0 0 0 0 0 0 0 0 0 0 0 0 0 0 0 127 0"></feColorMatrix><feOffset dx="8" dy="15"></feOffset><feGaussianBlur stdDeviation="6.5"></feGaussianBlur><feComposite in2="hardAlpha" k2="-1" k3="1" operator="arithmetic"></feComposite><feColorMatrix values="0 0 0 0 1 0 0 0 0 0 0 0 0 0 0.168627 0 0 0 0.3 0"></feColorMatrix><feBlend in2="effect2_innerShadow_37_1184" result="effect3_innerShadow_37_1184"></feBlend><feColorMatrix in="SourceAlpha" result="hardAlpha" values="0 0 0 0 0 0 0 0 0 0 0 0 0 0 0 0 0 0 127 0"></feColorMatrix><feOffset dy="-10"></feOffset><feGaussianBlur stdDeviation="7"></feGaussianBlur><feComposite in2="hardAlpha" k2="-1" k3="1" operator="arithmetic"></feComposite><feColorMatrix values="0 0 0 0 1 0 0 0 0 1 0 0 0 0 1 0 0 0 0.25 0"></feColorMatrix><feBlend in2="effect3_innerShadow_37_1184" result="effect4_innerShadow_37_1184"></feBlend></filter></defs></svg>